<mxfile host="app.diagrams.net" modified="2022-08-07T01:09:43.561Z" agent="5.0 (Windows)" etag="UwT8kgwyWqQ6PsLMLzHC" version="20.2.3" type="github">
  <diagram name="Page-1" id="e3a06f82-3646-2815-327d-82caf3d4e204">
    <mxGraphModel dx="2234" dy="1200" grid="1" gridSize="10" guides="1" tooltips="1" connect="1" arrows="1" fold="1" page="1" pageScale="1.5" pageWidth="1169" pageHeight="826" background="none" math="0" shadow="0">
      <root>
        <mxCell id="0" style=";html=1;" />
        <mxCell id="1" style=";html=1;" parent="0" />
        <mxCell id="Gy3Nzqwq1GHfnOmNhiGo-2" value="" style="verticalLabelPosition=bottom;sketch=0;aspect=fixed;html=1;verticalAlign=top;strokeColor=none;align=center;outlineConnect=0;shape=mxgraph.citrix.switch;" vertex="1" parent="1">
          <mxGeometry x="240" y="490" width="288.19" height="130" as="geometry" />
        </mxCell>
        <mxCell id="Gy3Nzqwq1GHfnOmNhiGo-3" value="" style="verticalLabelPosition=bottom;sketch=0;aspect=fixed;html=1;verticalAlign=top;strokeColor=none;align=center;outlineConnect=0;shape=mxgraph.citrix.switch;" vertex="1" parent="1">
          <mxGeometry x="1050" y="485" width="310.36" height="140" as="geometry" />
        </mxCell>
        <mxCell id="Gy3Nzqwq1GHfnOmNhiGo-4" value="" style="endArrow=none;html=1;rounded=0;" edge="1" parent="1">
          <mxGeometry width="50" height="50" relative="1" as="geometry">
            <mxPoint x="960" y="660" as="sourcePoint" />
            <mxPoint x="1010" y="610" as="targetPoint" />
          </mxGeometry>
        </mxCell>
        <mxCell id="Gy3Nzqwq1GHfnOmNhiGo-5" value="" style="endArrow=none;html=1;rounded=0;" edge="1" parent="1" source="Gy3Nzqwq1GHfnOmNhiGo-2" target="Gy3Nzqwq1GHfnOmNhiGo-3">
          <mxGeometry width="50" height="50" relative="1" as="geometry">
            <mxPoint x="960" y="660" as="sourcePoint" />
            <mxPoint x="1010" y="610" as="targetPoint" />
          </mxGeometry>
        </mxCell>
        <mxCell id="Gy3Nzqwq1GHfnOmNhiGo-6" value="&lt;font style=&quot;font-size: 36px;&quot;&gt;Reg-Reg1&lt;/font&gt;" style="rounded=0;whiteSpace=wrap;html=1;" vertex="1" parent="1">
          <mxGeometry x="290" y="190" width="1040" height="60" as="geometry" />
        </mxCell>
        <mxCell id="Gy3Nzqwq1GHfnOmNhiGo-7" value="&lt;font style=&quot;font-size: 36px;&quot;&gt;Reg-Reg2&lt;/font&gt;" style="rounded=0;whiteSpace=wrap;html=1;" vertex="1" parent="1">
          <mxGeometry x="280" y="820" width="1040" height="60" as="geometry" />
        </mxCell>
        <mxCell id="Gy3Nzqwq1GHfnOmNhiGo-8" value="Reg-dbock" style="rounded=0;whiteSpace=wrap;html=1;fontSize=36;" vertex="1" parent="1">
          <mxGeometry x="600" y="10" width="470" height="60" as="geometry" />
        </mxCell>
        <mxCell id="Gy3Nzqwq1GHfnOmNhiGo-12" value="Reg-dbock" style="rounded=0;whiteSpace=wrap;html=1;fontSize=36;" vertex="1" parent="1">
          <mxGeometry x="590" y="1020" width="470" height="60" as="geometry" />
        </mxCell>
        <mxCell id="Gy3Nzqwq1GHfnOmNhiGo-13" value="" style="endArrow=none;html=1;rounded=0;fontSize=36;" edge="1" parent="1">
          <mxGeometry width="50" height="50" relative="1" as="geometry">
            <mxPoint x="960" y="660" as="sourcePoint" />
            <mxPoint x="1010" y="610" as="targetPoint" />
          </mxGeometry>
        </mxCell>
        <mxCell id="Gy3Nzqwq1GHfnOmNhiGo-14" value="" style="endArrow=none;html=1;rounded=0;fontSize=36;" edge="1" parent="1">
          <mxGeometry width="50" height="50" relative="1" as="geometry">
            <mxPoint x="960" y="660" as="sourcePoint" />
            <mxPoint x="1010" y="610" as="targetPoint" />
          </mxGeometry>
        </mxCell>
        <mxCell id="Gy3Nzqwq1GHfnOmNhiGo-15" value="" style="endArrow=none;html=1;rounded=0;fontSize=36;" edge="1" parent="1">
          <mxGeometry width="50" height="50" relative="1" as="geometry">
            <mxPoint x="700" y="200" as="sourcePoint" />
            <mxPoint x="700" y="70" as="targetPoint" />
          </mxGeometry>
        </mxCell>
        <mxCell id="Gy3Nzqwq1GHfnOmNhiGo-16" value="" style="endArrow=none;html=1;rounded=0;fontSize=36;" edge="1" parent="1">
          <mxGeometry width="50" height="50" relative="1" as="geometry">
            <mxPoint x="990" y="210" as="sourcePoint" />
            <mxPoint x="990" y="80" as="targetPoint" />
          </mxGeometry>
        </mxCell>
        <mxCell id="Gy3Nzqwq1GHfnOmNhiGo-17" value="" style="endArrow=none;html=1;rounded=0;fontSize=36;" edge="1" parent="1">
          <mxGeometry width="50" height="50" relative="1" as="geometry">
            <mxPoint x="840" y="200" as="sourcePoint" />
            <mxPoint x="840" y="70" as="targetPoint" />
          </mxGeometry>
        </mxCell>
        <mxCell id="Gy3Nzqwq1GHfnOmNhiGo-20" value="" style="endArrow=none;html=1;rounded=0;fontSize=36;exitX=0.25;exitY=0;exitDx=0;exitDy=0;" edge="1" parent="1" source="Gy3Nzqwq1GHfnOmNhiGo-12">
          <mxGeometry width="50" height="50" relative="1" as="geometry">
            <mxPoint x="720" y="1000" as="sourcePoint" />
            <mxPoint x="708" y="880" as="targetPoint" />
          </mxGeometry>
        </mxCell>
        <mxCell id="Gy3Nzqwq1GHfnOmNhiGo-21" value="" style="endArrow=none;html=1;rounded=0;fontSize=36;entryX=0.684;entryY=0.048;entryDx=0;entryDy=0;entryPerimeter=0;" edge="1" parent="1" target="Gy3Nzqwq1GHfnOmNhiGo-12">
          <mxGeometry width="50" height="50" relative="1" as="geometry">
            <mxPoint x="911" y="880" as="sourcePoint" />
            <mxPoint x="710" y="170" as="targetPoint" />
          </mxGeometry>
        </mxCell>
        <mxCell id="Gy3Nzqwq1GHfnOmNhiGo-22" value="" style="endArrow=none;html=1;rounded=0;fontSize=36;entryX=0.435;entryY=0.048;entryDx=0;entryDy=0;entryPerimeter=0;" edge="1" parent="1" target="Gy3Nzqwq1GHfnOmNhiGo-12">
          <mxGeometry width="50" height="50" relative="1" as="geometry">
            <mxPoint x="794" y="870" as="sourcePoint" />
            <mxPoint x="790" y="1030" as="targetPoint" />
          </mxGeometry>
        </mxCell>
      </root>
    </mxGraphModel>
  </diagram>
</mxfile>
